<svg width="81" height="124" viewBox="0 0 81 124" fill="none" xmlns="http://www.w3.org/2000/svg">
<g clip-path="url(#clip0_539_1996)">
<path d="M41 9.17188L41.468 9.20048C42.3609 9.30804 43.1922 9.71973 43.828 10.3691C44.4637 11.0185 44.8667 11.8678 44.972 12.7798L45 13.2579V29.602L45.02 30.2149C45.1631 32.1605 45.983 33.9897 47.3314 35.3716C48.6799 36.7535 50.4678 37.597 52.372 37.7495L53 37.774H69L69.468 37.8026C70.3609 37.9102 71.1922 38.3219 71.828 38.9713C72.4637 39.6207 72.8667 40.4699 72.972 41.382L73 41.86V78.6342C73.0002 81.7609 71.8307 84.7695 69.7309 87.0443C67.631 89.3192 64.7596 90.6884 61.704 90.8719L61 90.8923H21C17.9392 90.8925 14.9939 89.6979 12.767 87.5529C10.54 85.4079 9.19957 82.4747 9.02 79.3534L9 78.6342V21.4299C8.99983 18.3033 10.1693 15.2947 12.2691 13.0198C14.369 10.745 17.2404 9.37574 20.296 9.19231L21 9.17188H41Z" fill="#002145"/>
<path d="M69.0001 29.6021H53.0001L52.9961 13.2539L69.0001 29.6021Z" fill="#002145"/>
</g>
<path d="M10.8295 109.864C10.6307 109.864 10.4534 109.847 10.2976 109.814C10.1418 109.784 10.0341 109.754 9.97443 109.724L10.2727 108.69C10.5578 108.763 10.8097 108.79 11.0284 108.77C11.2472 108.75 11.4411 108.652 11.6101 108.477C11.7824 108.304 11.9399 108.024 12.0824 107.636L12.3011 107.04L9.47727 99.3636H10.75L12.858 105.449H12.9375L15.0455 99.3636H16.3182L13.0767 108.114C12.9309 108.508 12.7502 108.835 12.5348 109.093C12.3194 109.355 12.0691 109.549 11.7841 109.675C11.5024 109.801 11.1842 109.864 10.8295 109.864ZM20.6957 107.159C20.0063 107.159 19.4014 106.995 18.881 106.667C18.364 106.339 17.9596 105.88 17.668 105.29C17.3796 104.7 17.2354 104.01 17.2354 103.222C17.2354 102.426 17.3796 101.732 17.668 101.138C17.9596 100.545 18.364 100.085 18.881 99.7564C19.4014 99.4283 20.0063 99.2642 20.6957 99.2642C21.3851 99.2642 21.9883 99.4283 22.5053 99.7564C23.0257 100.085 23.43 100.545 23.7184 101.138C24.0101 101.732 24.1559 102.426 24.1559 103.222C24.1559 104.01 24.0101 104.7 23.7184 105.29C23.43 105.88 23.0257 106.339 22.5053 106.667C21.9883 106.995 21.3851 107.159 20.6957 107.159ZM20.6957 106.105C21.2193 106.105 21.6502 105.971 21.9883 105.702C22.3263 105.434 22.5766 105.081 22.739 104.643C22.9014 104.206 22.9826 103.732 22.9826 103.222C22.9826 102.711 22.9014 102.236 22.739 101.795C22.5766 101.354 22.3263 100.998 21.9883 100.726C21.6502 100.454 21.2193 100.318 20.6957 100.318C20.172 100.318 19.7411 100.454 19.4031 100.726C19.065 100.998 18.8147 101.354 18.6523 101.795C18.4899 102.236 18.4087 102.711 18.4087 103.222C18.4087 103.732 18.4899 104.206 18.6523 104.643C18.8147 105.081 19.065 105.434 19.4031 105.702C19.7411 105.971 20.172 106.105 20.6957 106.105ZM30.7594 103.878V99.3636H31.9327V107H30.7594V105.707H30.6799C30.5009 106.095 30.2225 106.425 29.8446 106.697C29.4668 106.965 28.9895 107.099 28.4128 107.099C27.9355 107.099 27.5113 106.995 27.1401 106.786C26.7689 106.574 26.4772 106.256 26.2651 105.832C26.053 105.404 25.9469 104.866 25.9469 104.216V99.3636H27.1202V104.136C27.1202 104.693 27.276 105.137 27.5875 105.469C27.9024 105.8 28.3034 105.966 28.7907 105.966C29.0823 105.966 29.379 105.891 29.6806 105.742C29.9855 105.593 30.2407 105.364 30.4462 105.056C30.655 104.748 30.7594 104.355 30.7594 103.878ZM34.0817 107V99.3636H35.2152V100.517H35.2947C35.4339 100.139 35.6858 99.8326 36.0504 99.5973C36.415 99.362 36.826 99.2443 37.2834 99.2443C37.3696 99.2443 37.4773 99.246 37.6065 99.2493C37.7358 99.2526 37.8336 99.2576 37.8999 99.2642V100.457C37.8601 100.447 37.7689 100.433 37.6264 100.413C37.4872 100.389 37.3397 100.378 37.1839 100.378C36.8127 100.378 36.4813 100.456 36.1896 100.612C35.9013 100.764 35.6726 100.976 35.5036 101.248C35.3378 101.516 35.255 101.823 35.255 102.168V107H34.0817ZM43.1051 102.088V103.182H38.6506V102.088H43.1051ZM48.5701 99.3636V100.358H44.4537V99.3636H48.5701ZM45.6866 107V98.3097C45.6866 97.8722 45.7894 97.5076 45.9949 97.2159C46.2003 96.9242 46.4672 96.7055 46.7953 96.5597C47.1234 96.4138 47.4698 96.3409 47.8343 96.3409C48.1227 96.3409 48.358 96.3641 48.5403 96.4105C48.7226 96.4569 48.8585 96.5 48.948 96.5398L48.6099 97.554C48.5502 97.5341 48.4674 97.5092 48.3613 97.4794C48.2586 97.4496 48.1227 97.4347 47.9537 97.4347C47.5659 97.4347 47.2858 97.5324 47.1135 97.728C46.9444 97.9235 46.8599 98.2102 46.8599 98.5881V107H45.6866ZM50.2145 107V99.3636H51.3878V107H50.2145ZM50.8111 98.0909C50.5824 98.0909 50.3852 98.013 50.2195 97.8572C50.0571 97.7015 49.9759 97.5142 49.9759 97.2955C49.9759 97.0767 50.0571 96.8894 50.2195 96.7337C50.3852 96.5779 50.5824 96.5 50.8111 96.5C51.0398 96.5 51.2353 96.5779 51.3977 96.7337C51.5634 96.8894 51.6463 97.0767 51.6463 97.2955C51.6463 97.5142 51.5634 97.7015 51.3977 97.8572C51.2353 98.013 51.0398 98.0909 50.8111 98.0909ZM54.71 96.8182V107H53.5368V96.8182H54.71ZM60.0607 107.159C59.3249 107.159 58.6902 106.997 58.1566 106.672C57.6263 106.344 57.217 105.886 56.9286 105.3C56.6436 104.71 56.5011 104.024 56.5011 103.241C56.5011 102.459 56.6436 101.77 56.9286 101.173C57.217 100.573 57.618 100.106 58.1317 99.7713C58.6488 99.4332 59.252 99.2642 59.9414 99.2642C60.3391 99.2642 60.7319 99.3305 61.1197 99.4631C61.5075 99.5956 61.8604 99.8111 62.1786 100.109C62.4968 100.404 62.7504 100.795 62.9393 101.283C63.1282 101.77 63.2227 102.37 63.2227 103.082V103.58H57.3363V102.565H62.0295C62.0295 102.134 61.9433 101.75 61.771 101.412C61.6019 101.074 61.36 100.807 61.0451 100.612C60.7335 100.416 60.3656 100.318 59.9414 100.318C59.4741 100.318 59.0697 100.434 58.7283 100.666C58.3903 100.895 58.1301 101.193 57.9478 101.561C57.7655 101.929 57.6744 102.323 57.6744 102.744V103.42C57.6744 103.997 57.7738 104.486 57.9727 104.887C58.1748 105.285 58.4549 105.588 58.8129 105.797C59.1708 106.002 59.5868 106.105 60.0607 106.105C60.369 106.105 60.6474 106.062 60.896 105.976C61.1478 105.886 61.3649 105.754 61.5472 105.578C61.7295 105.399 61.8704 105.177 61.9698 104.912L63.1033 105.23C62.984 105.615 62.7835 105.953 62.5018 106.244C62.2201 106.533 61.872 106.758 61.4577 106.92C61.0434 107.08 60.5778 107.159 60.0607 107.159Z" fill="#878787"/>
<defs>
<clipPath id="clip0_539_1996">
<rect width="64" height="84" fill="white" transform="translate(9 9)"/>
</clipPath>
</defs>
</svg>
